<svg id="noun_crafts_1306646" xmlns="http://www.w3.org/2000/svg" viewBox="0 0 137.602 114.145">
  <defs>
    <style>
      .cls-1 {
        fill: #fff;
      }
    </style>
  </defs>
  <path id="Path_25" data-name="Path 25" class="cls-1" d="M114.991,38.424l-3.217-1.843a1.418,1.418,0,0,0-.468-1.745l1.719-3a1.546,1.546,0,0,0-.564-2.113l-.443-.246a1.543,1.543,0,0,0-2.112.565l-1.721,3-1.6-.934,1.721-3A1.543,1.543,0,0,0,107.744,27l-.442-.246a1.523,1.523,0,0,0-2.087.59l-1.721,2.972-1.719-.983,1.719-3a1.544,1.544,0,0,0-.564-2.112l-.443-.246a1.544,1.544,0,0,0-2.112.565l-1.721,3-1.719-1.007,1.719-2.972a1.535,1.535,0,0,0-.541-2.113L97.7,21.2a1.544,1.544,0,0,0-2.112.565l-1.719,3-1.721-1.007,1.721-2.972a1.55,1.55,0,0,0-.591-2.112l-.393-.246a1.546,1.546,0,0,0-2.113.565l-1.719,3L87.33,20.982l1.719-2.972a1.544,1.544,0,0,0-.564-2.112l-.443-.246a1.544,1.544,0,0,0-2.112.565L84.21,19.189l-1.695-.983,1.721-2.972a1.544,1.544,0,0,0-.565-2.112l-.417-.246a1.574,1.574,0,0,0-.883-.222,1.553,1.553,0,0,0-1.229.787L79.42,16.414a1.431,1.431,0,0,0-1.817.443l-2.653-1.548a1.543,1.543,0,0,0-2.112.565l-.246.443a1.545,1.545,0,0,0,.565,2.112l2.628,1.524-.932,1.6-2.63-1.524a1.546,1.546,0,0,0-2.113.565l-.245.443a1.516,1.516,0,0,0,.564,2.087l2.653,1.524-1.007,1.719-2.628-1.524a1.545,1.545,0,0,0-2.113.565l-.244.417a1.573,1.573,0,0,0,.564,2.136l2.63,1.524L69.3,31.2,66.647,29.68a1.508,1.508,0,0,0-2.087.541l-.245.417a1.546,1.546,0,0,0,.564,2.113l2.63,1.524-.986,1.716L63.87,34.468a1.543,1.543,0,0,0-2.112.565l-.222.417a1.544,1.544,0,0,0,.564,2.112l2.628,1.524L63.746,40.8l-2.653-1.524a1.543,1.543,0,0,0-2.112.565l-.246.443A1.543,1.543,0,0,0,59.3,42.4l2.651,1.524L60.97,45.62,58.317,44.1a1.545,1.545,0,0,0-2.113.565l-.244.417a1.544,1.544,0,0,0,.564,2.112l2.653,1.524a1.453,1.453,0,0,0,.491,1.916l-1.229,2.113A1.546,1.546,0,0,0,59,54.856l.417.246a1.545,1.545,0,0,0,2.113-.565l1.229-2.112,1.693.983-1.229,2.112a1.546,1.546,0,0,0,.565,2.112l.442.246a1.545,1.545,0,0,0,2.113-.565L67.576,55.2l1.719.983-1.229,2.136a1.544,1.544,0,0,0,.565,2.112l.393.222a1.572,1.572,0,0,0,2.136-.565l1.229-2.112,1.721.983-1.229,2.136a1.546,1.546,0,0,0,.564,2.113l.417.246a1.523,1.523,0,0,0,2.087-.59l1.229-2.113,1.721.983L77.671,63.87a1.544,1.544,0,0,0,.564,2.112l.442.246a1.545,1.545,0,0,0,2.113-.565l1.229-2.136,1.719,1.007-1.229,2.113a1.537,1.537,0,0,0,.541,2.112l.442.246a1.546,1.546,0,0,0,2.113-.565L86.833,66.3l1.6.934L87.2,69.373a1.544,1.544,0,0,0,.564,2.112l.442.246a1.545,1.545,0,0,0,2.113-.565l1.229-2.136a1.422,1.422,0,0,0,1.817-.565l3.194,1.843a1.545,1.545,0,0,0,2.113-.565l.246-.417a1.544,1.544,0,0,0-.565-2.112L95.16,65.369l.983-1.695,3.194,1.843a1.545,1.545,0,0,0,2.113-.565l.246-.443a1.546,1.546,0,0,0-.565-2.112l-3.194-1.843,1.007-1.719,3.194,1.843a1.546,1.546,0,0,0,2.113-.565l.222-.417a1.546,1.546,0,0,0-.565-2.113l-3.194-1.843,1.007-1.719,3.194,1.843a1.545,1.545,0,0,0,2.113-.565l.244-.417a1.524,1.524,0,0,0-.59-2.089l-3.194-1.843,1.007-1.719,3.194,1.843a1.553,1.553,0,0,0,2.113-.59l.245-.417a1.543,1.543,0,0,0-.564-2.112L106.29,46.11l.983-1.719,3.194,1.843a1.538,1.538,0,0,0,2.113-.541l.246-.443a1.544,1.544,0,0,0-.565-2.112L109.066,41.3,110,39.7l3.194,1.843a1.543,1.543,0,0,0,2.112-.565l.246-.443A1.537,1.537,0,0,0,114.991,38.424Z" transform="translate(21.84 -12.652)"/>
  <path id="Path_26" data-name="Path 26" class="cls-1" d="M85.689,56.929c-.937-.012-2.179-.008-3.661,0-4.444.024-11.08.127-18.425.295l-23.753.541-1.572,3.094c-.868,1.7-1.453,3.215-1.3,3.365s6.626.593,14.395.984c26.377,1.325,26.291,1.339,30.56-1.695,3.684-2.619,6.482-5.752,5.772-6.462A10.421,10.421,0,0,0,85.689,56.929Z" transform="translate(11.911 10.728)"/>
  <path id="Path_27" data-name="Path 27" class="cls-1" d="M39.519,85.133c4.542-7.271,32.454-56.2,32.2-56.451a.224.224,0,0,0-.171-.049c-1.423-.011-9.91,2.885-11.765,4.077-2.518,1.618-27.36,48.822-27.54,52.326-.093,1.826-2.22,6.922-5.747,13.805-6.812,13.292-7.2,16.677-2.138,18.842,2.945,1.258,5.393.8,9.36-1.745,3.874-2.482,7.306-7.948,8.475-13.512.966-4.594.923-4.913-2.506-13.289C38.891,87.18,38.837,86.225,39.519,85.133Zm-1.794,18.474c-1.678,4.943-4.013,7.994-7.541,9.8-3.451,1.767-3.211,1.727-4.4.541-1.487-1.485-1.161-2.829,2.309-9.6,4.268-8.331,5.955-10.662,7.763-10.662C38.956,93.682,39.722,97.729,37.725,103.606Zm2.433-28.79a1.158,1.158,0,0,1,1.18,1.129c0,1.313-1.109,2.184-1.843,1.449C38.555,76.456,38.973,74.816,40.158,74.816Z" transform="translate(3.448 -4.212)"/>
  <path id="Path_28" data-name="Path 28" class="cls-1" d="M42.783,64.458a15.157,15.157,0,0,0,1.449-3.391c.018-.384-1.869-.471-4.2-.2-6.886.81-8.822.061-12.405-4.789-3.492-4.727-6.675-6.487-11.669-6.487-5.839,0-10.986,4.192-10.981,8.943,0,3.6,2.595,7.378,5.649,8.2,1.423.385,8.921.622,16.655.541l14.051-.148ZM24.729,61.167A6.718,6.718,0,0,1,22,62.912c-4.039,1.536-9.037,1.036-11.177-1.106-2.491-2.491-2.44-4.621.147-6.657a9.205,9.205,0,0,1,5.159-1.621,8.711,8.711,0,0,1,5.159,1.229C23.469,56.283,25.461,59.984,24.729,61.167Z" transform="translate(-4.976 6.858)"/>
</svg>
