<svg id="noun_Tango_788254" xmlns="http://www.w3.org/2000/svg" viewBox="0 0 119.475 122.012">
  <defs>
    <style>
      .cls-1 {
        fill: #fff;
      }
    </style>
  </defs>
  <g id="Group_142" data-name="Group 142" transform="translate(0)">
    <path id="Path_30" data-name="Path 30" class="cls-1" d="M75.893,158.386c-5.639,5.7-14.08,9.629-22.455,12.317L49,176.427a7.137,7.137,0,1,0,11.277,8.75l22.07-28.445-3.674-1.075C77.832,156.454,76.913,157.356,75.893,158.386Z" transform="translate(-20.379 -66.783)"/>
    <path id="Path_31" data-name="Path 31" class="cls-1" d="M107.668,60.148a31.82,31.82,0,0,0,7.1-1.79,27.774,27.774,0,0,0,6.738-3.7c-1.387-3.094-3.123-6.308-4.111-8.081a13.881,13.881,0,0,1-5.18-.049,8.481,8.481,0,0,0-2.877,3.084,4.548,4.548,0,0,0-.507,1s-.012.033-.058.154a68.732,68.732,0,0,1-3.225,7.159A14.589,14.589,0,0,1,107.668,60.148Z" transform="translate(-45.284 -19.963)"/>
    <path id="Path_32" data-name="Path 32" class="cls-1" d="M140.233,45.812a29.924,29.924,0,0,0,2.4-3.057,4.54,4.54,0,0,1,.31-.4,5.707,5.707,0,0,1,6.392-2.745c8.978,2.294,12.056,2.917,12.056,2.917s.034.387.088,1.015c-2.593-.456-6.672-1.355-12.426-2.825A4.568,4.568,0,0,0,146.8,49.57a142.2,142.2,0,0,0,15.392,3.32l.124.016h0a18.625,18.625,0,0,0,2.2.152,7.142,7.142,0,0,0,2.449-.371,5.066,5.066,0,0,0,2.022-1.311,4.883,4.883,0,0,0,1.3-3.295,4.974,4.974,0,0,0-.545-2.253,6.1,6.1,0,0,0-1.387-1.771,14.6,14.6,0,0,0-2.275-1.623,105.557,105.557,0,0,0-10.45-5.132c-3.547-1.563-6.467-2.754-6.492-2.763a4.543,4.543,0,0,0-1.961-.328c-.063,0-.123.007-.184.012-.11.01-.218.026-.326.045-.012,0-.026,0-.038.005l-.011,0a4.412,4.412,0,0,0-.6.145,39.576,39.576,0,0,0-5.186,1.665c-.216.277-.44.549-.675.81A50.056,50.056,0,0,1,140.233,45.812Z" transform="translate(-60.138 -14.675)"/>
    <path id="Path_33" data-name="Path 33" class="cls-1" d="M140.963,102.747a81.941,81.941,0,0,1-3.116-11.084c-.263-1.307-.422-2.309-.512-2.955-.046-.322-.072-.557-.089-.695-.007-.064-.011-.107-.014-.13a.056.056,0,0,0,0-.016c0-.043-.013-.086-.018-.129,2.175-9.243,3.141-15.1,2.733-22.132-2.314-.492-5.078-1.144-8.41-1.98a36.513,36.513,0,0,1-14.924,10.6c-1.015.388-2.019.72-3,1.008-.14,3.131-1.115,7-3.108,12.616-.011.044-.027.093-.039.139l-8.2,10.567c-.013.1-.025.208-.037.312a67.956,67.956,0,0,1,13.515,5.6l8.041-10.365c1.849,9.443,7.917,30.876,27.074,52.518a7.137,7.137,0,0,0,10.683-9.468A105,105,0,0,1,140.963,102.747Z" transform="translate(-43.858 -27.299)"/>
    <path id="Path_34" data-name="Path 34" class="cls-1" d="M5.025,188.718l-2.96,2.454a5.71,5.71,0,0,0,7.289,8.792v0l18.351-15.213a138.041,138.041,0,0,1-22.622,3.964Z" transform="translate(0 -79.265)"/>
    <path id="Path_35" data-name="Path 35" class="cls-1" d="M108.4,142.862c-2.353.589-4.173,1.047-9.029,5.509l7.894,2.31L94.342,171.719a5.71,5.71,0,1,0,9.729,5.979l16.842-27.406a5.709,5.709,0,0,0-3.261-8.469l-3.54-1.036-.04.02A24.5,24.5,0,0,1,108.4,142.862Z" transform="translate(-40.113 -60.403)"/>
    <ellipse id="Ellipse_1" data-name="Ellipse 1" class="cls-1" cx="11.419" cy="11.418" rx="11.419" ry="11.418" transform="translate(28.032 20.384) rotate(-27.095)"/>
    <path id="Path_36" data-name="Path 36" class="cls-1" d="M8.752,135.551s35.019-2.665,49.706-17.51c11.77-11.9,11.063-7.577,18.747-11.419-9.325-5.614-15.712-6.685-15.712-6.685l-.406-2.03a62.069,62.069,0,0,1,2.278-10.1c3.228-.179,5.662-3.071,5.926-7.651a15.675,15.675,0,0,0-.3-3.928,43.359,43.359,0,0,1-7.388.651h0a30.982,30.982,0,0,1-4.057-.228A4.568,4.568,0,0,1,58.817,67.6c.032,0,.074.009.13.013.109.012.283.032.52.05.452.036,1.19.079,2.139.079.814,0,1.905-.036,3.179-.158-3.42-3.987-7.841-4.619-9.882-3.749-2.377,1.013-5.422,3.011-6.184,9.863-.247,2.222-.63,5.35-1.035,8.563l1.41-.352a5.71,5.71,0,0,1,2.769,11.08l-5.137,1.283a5.775,5.775,0,0,1-.607.113c-.134,1.02-.215,1.63-.215,1.63-.6,1.545-1.336,3.212-2.225,5.017-.579.36-1.147.726-1.713,1.1a111.113,111.113,0,0,0-18.121,14.9A115.618,115.618,0,0,0,8.752,135.551Z" transform="translate(-3.755 -27.241)"/>
    <path id="Path_37" data-name="Path 37" class="cls-1" d="M69.944,98.868c-2.449.611-.942,9,1.1,9a4.6,4.6,0,0,0,1.111-.137l5.138-1.285a4.568,4.568,0,0,0-2.214-8.864Z" transform="translate(-29.466 -41.808)"/>
    <ellipse id="Ellipse_2" data-name="Ellipse 2" class="cls-1" cx="12.847" cy="12.847" rx="12.847" ry="12.847" transform="translate(56.81)"/>
    <path id="Path_38" data-name="Path 38" class="cls-1" d="M110.68,68.813a35.192,35.192,0,0,0,14.1-9.84l-.067-.017a5.716,5.716,0,0,1-4.294-5.455,28.291,28.291,0,0,1-12.192,8.914A34.241,34.241,0,0,1,96.184,64.6c-.96,0-1.722-.042-2.229-.083-.254-.02-.441-.04-.559-.054-.059-.007-.1-.012-.123-.013l-.01,0a3.426,3.426,0,1,0-.974,6.782h0a29.623,29.623,0,0,0,3.9.22A41.038,41.038,0,0,0,110.68,68.813Z" transform="translate(-38.334 -22.955)"/>
  </g>
</svg>
