<svg xmlns="http://www.w3.org/2000/svg" xmlns:xlink="http://www.w3.org/1999/xlink" viewBox="0 0 177.66 71.533">
  <defs>
    <style>
      .cls-1, .cls-3 {
        fill: #fff;
      }

      .cls-2 {
        clip-path: url(#clip-path);
      }

      .cls-3, .cls-4 {
        stroke: #b124d2;
        stroke-miterlimit: 10;
      }

      .cls-4 {
        fill: none;
      }

      .cls-5 {
        clip-path: url(#clip-path-2);
      }

      .cls-6 {
        clip-path: url(#clip-path-3);
      }

      .cls-7 {
        clip-path: url(#clip-path-4);
      }

      .cls-8 {
        clip-path: url(#clip-path-5);
      }

      .cls-9 {
        clip-path: url(#clip-path-6);
      }

      .cls-10 {
        clip-path: url(#clip-path-7);
      }

      .cls-11 {
        clip-path: url(#clip-path-8);
      }

      .cls-12 {
        clip-path: url(#clip-path-9);
      }

      .cls-13 {
        clip-path: url(#clip-path-10);
      }

      .cls-14 {
        clip-path: url(#clip-path-11);
      }

      .cls-15 {
        clip-path: url(#clip-path-12);
      }
    </style>
    <clipPath id="clip-path">
      <path id="Path_397" data-name="Path 397" d="M151.764,42.512c-5.3,1.677-10.5,4.5-13.153,9.534a21.8,21.8,0,0,0-1.677,4.767,13.417,13.417,0,0,0,1.236,10.24,14.485,14.485,0,0,0,7.5,6.356c8.739,3.443,21.893.441,26.042-8.828,1.059-2.3,1.5-6.974.265-9.269-1.854-3.619-7.592-5.915-12.271-5.65-4.767.177-9.446,2.119-12.094,5.3-2.648,3.09-2.648,7.239-.353,9.71a9.924,9.924,0,0,0,7.768,2.825c3.619-.088,6.8-1.5,8.563-3.8,1.766-2.207,1.854-5.032-.177-6.886A6.931,6.931,0,0,0,156,56.107c-2.207.883-3.619,3.443-2.119,4.944-.353-1.854,1.589-2.913,3-3,1.5-.265,2.737.441,2.913,1.059.53,1.324-1.059,3.443-4.59,3.531a3.828,3.828,0,0,1-2.825-.971c-.794-.794-.971-2.56.353-4.149,1.236-1.589,4.061-2.825,7.062-2.913,2.913-.177,5.65.971,6.621,2.913,1.942,3.8-.441,7.5-3.531,9.71A14.117,14.117,0,0,1,151.234,69.7a12.736,12.736,0,0,1-3.972-1.5A8.526,8.526,0,0,1,144,64.847a9.432,9.432,0,0,1-.794-7.239c.794-3.09,1.942-5.915,4.679-7.857,5.473-3.884,14.124-5.208,20.392-2.825,3.443,1.324,6.444,4.149,9.887,5.208-1.148-4.767-6.091-8.916-10.5-10.152a27.81,27.81,0,0,0-6.621-.883,33.47,33.47,0,0,0-9.269,1.412" transform="translate(-136.429 -41.1)"/>
    </clipPath>
    <clipPath id="clip-path-2">
      <path id="Path_400" data-name="Path 400" d="M128.437,24.865c-3.619,1.677,1.766,8.386,3.09,9.975,3.443,4.149,5.915,7.857,7.062,7.239s-.618-4.767-2.913-9.71c-.618-1.324-1.942-4.5-3.619-6.356A3.976,3.976,0,0,0,129.5,24.6a2.35,2.35,0,0,0-1.059.265" transform="translate(-127.206 -24.6)"/>
    </clipPath>
    <clipPath id="clip-path-3">
      <path id="Path_404" data-name="Path 404" d="M141.248,11.1c-2.207,0-2.648,2.913-2.648,4.679a29.286,29.286,0,0,0,1.942,8.651c2.3,6.444,3.708,12.006,5.3,11.653,1.677-.353,1.324-6,.706-12.8a53.21,53.21,0,0,0-1.236-7.5,5.611,5.611,0,0,0-.53-1.589c-.618-1.589-1.677-3.09-3.531-3.09Z" transform="translate(-138.6 -11.1)"/>
    </clipPath>
    <clipPath id="clip-path-4">
      <path id="Path_408" data-name="Path 408" d="M167.259,17.168a103.911,103.911,0,0,0-3.443,11.3c-.265.971-1.324,3.708.088,4.326,1.5.706,4.59-4.061,8.033-10.064.795-1.412,1.589-2.825,2.3-4.237a28.6,28.6,0,0,0,1.677-4.149c.53-2.03.441-3.972-1.5-4.767A4.431,4.431,0,0,0,173.35,9.4c-3.266,0-5.3,5.561-6.091,7.768" transform="translate(-163.186 -9.4)"/>
    </clipPath>
    <clipPath id="clip-path-5">
      <path id="Path_412" data-name="Path 412" d="M188.027,51.854c-1.5,1.059-9.181,5.208-7.945,7.68.794,1.5,4.944.265,9.887-1.412a68.9,68.9,0,0,0,8.122-4.149C197.12,51.148,195.354,50,193.236,50a9.6,9.6,0,0,0-5.208,1.854" transform="translate(-179.948 -50)"/>
    </clipPath>
    <clipPath id="clip-path-6">
      <path id="Path_416" data-name="Path 416" d="M156.661,3.6c-4.414.441-3.972,8.916-4.061,11.829,0,3.8.353,7.68.618,11.476.088,1.059-.088,6.886,1.766,7.062,1.766.088,3-6.533,4.237-14.654.353-2.207.53-4.414.706-6.621a24.586,24.586,0,0,0,.088-4.414,7.078,7.078,0,0,0-.441-1.854c-.441-1.148-1.412-2.737-2.825-2.737a.086.086,0,0,0-.088-.088" transform="translate(-152.6 -3.6)"/>
    </clipPath>
    <clipPath id="clip-path-7">
      <path id="Path_419" data-name="Path 419" d="M8.18,41.752c0-2.472.794-4.414,3.178-4.414s3.178,1.942,3.178,4.414v2.737H8.18ZM.5,45.195v6.8c0,8.3,1.236,13.683,11.211,13.683,6,0,9.975-3.531,9.975-9.446,0-2.913-1.589-3.619-3.708-3.619-2.03,0-3.531.706-3.619,3.884-.088,1.766-1.236,3.355-2.825,3.355-3,0-3.355-3.09-3.355-6.974V49.608H17.8c3.708,0,4.061-2.3,4.061-5.208,0-8.563-2.56-12.8-10.24-12.8C1.736,31.512.5,36.9.5,45.195" transform="translate(-0.5 -31.599)"/>
    </clipPath>
    <clipPath id="clip-path-8">
      <path id="Path_422" data-name="Path 422" d="M29.38,49.656V45.418c0-7.15.706-9.181,3.178-9.181,1.766,0,3.619,1.324,3.619,7.857v6.179c0,4.679-.794,7.945-3.708,7.945-2.737,0-3.09-3.178-3.09-8.563m6.8-25.953V33.854h-.088a7.218,7.218,0,0,0-6.533-3.8c-6.621,0-7.857,6-7.857,12.712v8.739c0,6.709,1.236,12.712,7.857,12.712a7.057,7.057,0,0,0,6.533-3.8h.088a3.592,3.592,0,0,0,3.708,3.8c2.207,0,3.708-1.412,3.708-4.414V23.614c0-3-1.412-4.414-3.708-4.414-2.3.088-3.708,1.5-3.708,4.5" transform="translate(-21.7 -19.2)"/>
    </clipPath>
    <clipPath id="clip-path-9">
      <path id="Path_425" data-name="Path 425" d="M57.524,35.914V53.481c0,4.061-1.236,5.826-3.884,5.826-1.854,0-2.825-1.059-2.825-3.443V35.914c0-3-1.412-4.414-3.708-4.414S43.4,32.912,43.4,35.914V57.63c0,5.561,2.913,8.033,7.062,8.033a7.334,7.334,0,0,0,6.886-4.237h.088c0,2.825,1.412,4.237,3.708,4.237,2.207,0,3.708-1.412,3.708-4.414V35.914c0-3-1.412-4.414-3.708-4.414-2.207,0-3.619,1.412-3.619,4.414" transform="translate(-43.4 -31.5)"/>
    </clipPath>
    <clipPath id="clip-path-10">
      <path id="Path_428" data-name="Path 428" d="M114.527,51.98V45.536c0-6.533,1.854-7.945,3.619-7.945,2.472,0,3.178,2.03,3.178,9.181v4.59c0,5.385-.353,8.563-3.09,8.563-2.913,0-3.708-3.266-3.708-7.945m.177-16.066h-.088c0-3-1.412-4.414-3.708-4.414s-3.708,1.412-3.708,4.414V72.99c0,3,1.412,4.414,3.708,4.414s3.708-1.412,3.708-4.414V62.044h.088a7.048,7.048,0,0,0,6.533,3.708c6.621,0,7.857-6,7.857-12.712V44.3c0-6.709-1.236-12.712-7.857-12.712a7.055,7.055,0,0,0-6.533,4.326" transform="translate(-107.2 -31.5)"/>
    </clipPath>
    <clipPath id="clip-path-11">
      <path id="Path_431" data-name="Path 431" d="M93.092,56.041c0-2.737.618-3.884,3.884-6.179l2.56-1.766v5.738c0,3.443-1.412,6.091-3.884,6.091-1.5,0-2.56-1.412-2.56-3.884m-7.327-15.8c0,2.207,2.207,3,3.884,3,1.942,0,3.355-.883,3.531-2.383.265-2.56,1.059-3.884,3.619-3.884,1.854,0,2.825,1.5,2.825,3.266a3.768,3.768,0,0,1-2.383,3.443l-6.533,3.443c-3.884,2.03-5.208,4.855-5.208,9.8,0,6.179,3.266,8.739,7.592,8.739A7.04,7.04,0,0,0,99.8,61.6l.088-.088c0,3.178,1.854,4.149,3.884,4.149,2.383,0,3.708-.971,3.708-2.913,0-1.059-.441-2.737-.441-4.855V41.122c0-5.3-1.059-9.622-10.946-9.622-5.738,0-10.328,3.09-10.328,8.739" transform="translate(-85.5 -31.5)"/>
    </clipPath>
    <clipPath id="clip-path-12">
      <path id="Path_434" data-name="Path 434" d="M65.4,45.647v6c0,7.857.971,14.124,10.77,14.124,8.651,0,10.152-6.886,10.152-10.152,0-2.737-1.412-4.237-3.619-4.237-2.383,0-3.531,1.148-3.708,5.3-.088,2.56-1.412,3.355-2.737,3.355-2.383,0-3.09-2.3-3.09-7.68V45.118c0-4.326.177-7.68,3.09-7.68,1.589,0,2.737,1.059,2.737,3.178,0,3,1.236,4.149,3.708,4.149,2.03,0,3.619-1.236,3.619-4.149S84.556,31.7,76.17,31.7c-9.8-.177-10.77,6.091-10.77,13.948" transform="translate(-65.4 -31.696)"/>
    </clipPath>
  </defs>
  <g id="educap_logo" transform="translate(0.5 0.5)">
    <g id="Layer_2_2_" transform="translate(0 0)">
      <g id="Layer_1-2_2_">
        <g id="Group_191" data-name="Group 191" transform="translate(119.994 33.104)">
          <path id="Path_395" data-name="Path 395" class="cls-1" d="M151.764,42.512c-5.3,1.677-10.5,4.5-13.153,9.534a21.8,21.8,0,0,0-1.677,4.767,13.417,13.417,0,0,0,1.236,10.24,14.485,14.485,0,0,0,7.5,6.356c8.739,3.443,21.893.441,26.042-8.828,1.059-2.3,1.5-6.974.265-9.269-1.854-3.619-7.592-5.915-12.271-5.65-4.767.177-9.446,2.119-12.094,5.3-2.648,3.09-2.648,7.239-.353,9.71a9.924,9.924,0,0,0,7.768,2.825c3.619-.088,6.8-1.5,8.563-3.8,1.766-2.207,1.854-5.032-.177-6.886A6.931,6.931,0,0,0,156,56.107c-2.207.883-3.619,3.443-2.119,4.944-.353-1.854,1.589-2.913,3-3,1.5-.265,2.737.441,2.913,1.059.53,1.324-1.059,3.443-4.59,3.531a3.828,3.828,0,0,1-2.825-.971c-.794-.794-.971-2.56.353-4.149,1.236-1.589,4.061-2.825,7.062-2.913,2.913-.177,5.65.971,6.621,2.913,1.942,3.8-.441,7.5-3.531,9.71A14.117,14.117,0,0,1,151.234,69.7a12.736,12.736,0,0,1-3.972-1.5A8.526,8.526,0,0,1,144,64.847a9.432,9.432,0,0,1-.794-7.239c.794-3.09,1.942-5.915,4.679-7.857,5.473-3.884,14.124-5.208,20.392-2.825,3.443,1.324,6.444,4.149,9.887,5.208-1.148-4.767-6.091-8.916-10.5-10.152a27.81,27.81,0,0,0-6.621-.883,33.47,33.47,0,0,0-9.269,1.412" transform="translate(-136.429 -41.1)"/>
          <g id="Group_190" data-name="Group 190" class="cls-2">
            <path id="Path_396" data-name="Path 396" class="cls-3" d="M129.3,41.186l6.8,40.961,46.7-6.886L176,34.3Z" transform="translate(-135.593 -40.303)"/>
          </g>
          <path id="Path_398" data-name="Path 398" class="cls-4" d="M151.764,42.512c-5.3,1.677-10.5,4.5-13.153,9.534a21.8,21.8,0,0,0-1.677,4.767,13.417,13.417,0,0,0,1.236,10.24,14.485,14.485,0,0,0,7.5,6.356c8.739,3.443,21.893.441,26.042-8.828,1.059-2.3,1.5-6.974.265-9.269-1.854-3.619-7.592-5.915-12.271-5.65-4.767.177-9.446,2.119-12.094,5.3-2.648,3.09-2.648,7.239-.353,9.71a9.924,9.924,0,0,0,7.768,2.825c3.619-.088,6.8-1.5,8.563-3.8,1.766-2.207,1.854-5.032-.177-6.886A6.931,6.931,0,0,0,156,56.107c-2.207.883-3.619,3.443-2.119,4.944-.353-1.854,1.589-2.913,3-3,1.5-.265,2.737.441,2.913,1.059.53,1.324-1.059,3.443-4.59,3.531a3.828,3.828,0,0,1-2.825-.971c-.794-.794-.971-2.56.353-4.149,1.236-1.589,4.061-2.825,7.062-2.913,2.913-.177,5.65.971,6.621,2.913,1.942,3.8-.441,7.5-3.531,9.71A14.117,14.117,0,0,1,151.234,69.7a12.736,12.736,0,0,1-3.972-1.5A8.526,8.526,0,0,1,144,64.847a9.432,9.432,0,0,1-.794-7.239c.794-3.09,1.942-5.915,4.679-7.857,5.473-3.884,14.124-5.208,20.392-2.825,3.443,1.324,6.444,4.149,9.887,5.208-1.148-4.767-6.091-8.916-10.5-10.152a27.81,27.81,0,0,0-6.621-.883,33.47,33.47,0,0,0-9.269,1.412" transform="translate(-136.429 -41.1)"/>
        </g>
        <g id="Group_193" data-name="Group 193" transform="translate(111.852 18.538)">
          <path id="Path_399" data-name="Path 399" class="cls-1" d="M128.437,24.865c-3.619,1.677,1.766,8.386,3.09,9.975,3.443,4.149,5.915,7.857,7.062,7.239s-.618-4.767-2.913-9.71c-.618-1.324-1.942-4.5-3.619-6.356A3.976,3.976,0,0,0,129.5,24.6a2.35,2.35,0,0,0-1.059.265" transform="translate(-127.206 -24.6)"/>
          <g id="Group_192" data-name="Group 192" class="cls-5" transform="translate(0 0)">
            <rect id="Rectangle_473" data-name="Rectangle 473" class="cls-3" width="23.482" height="22.952" transform="matrix(0.627, -0.779, 0.779, 0.627, -11.215, 10.935)"/>
          </g>
          <path id="Path_401" data-name="Path 401" class="cls-4" d="M128.437,24.865c-3.619,1.677,1.766,8.386,3.09,9.975,3.443,4.149,5.915,7.857,7.062,7.239s-.618-4.767-2.913-9.71c-.618-1.324-1.942-4.5-3.619-6.356A3.976,3.976,0,0,0,129.5,24.6a2.35,2.35,0,0,0-1.059.265" transform="translate(-127.206 -24.6)"/>
        </g>
        <g id="Group_195" data-name="Group 195" transform="translate(121.911 6.621)">
          <path id="Path_402" data-name="Path 402" class="cls-1" d="M141.248,11.1c-2.207,0-2.648,2.913-2.648,4.679a29.286,29.286,0,0,0,1.942,8.651c2.3,6.444,3.708,12.006,5.3,11.653,1.677-.353,1.324-6,.706-12.8a53.21,53.21,0,0,0-1.236-7.5,5.611,5.611,0,0,0-.53-1.589c-.618-1.589-1.677-3.09-3.531-3.09Z" transform="translate(-138.6 -11.1)"/>
          <g id="Group_194" data-name="Group 194" class="cls-6">
            <path id="Path_403" data-name="Path 403" class="cls-3" d="M126,17.37,139.506,39.88l17.567-10.858L143.655,6.6Z" transform="translate(-137.123 -10.572)"/>
          </g>
          <path id="Path_405" data-name="Path 405" class="cls-4" d="M141.248,11.1c-2.207,0-2.648,2.913-2.648,4.679a29.286,29.286,0,0,0,1.942,8.651c2.3,6.444,3.708,12.006,5.3,11.653,1.677-.353,1.324-6,.706-12.8a53.21,53.21,0,0,0-1.236-7.5,5.611,5.611,0,0,0-.53-1.589c-.618-1.589-1.677-3.09-3.531-3.09Z" transform="translate(-138.6 -11.1)"/>
        </g>
        <g id="Group_197" data-name="Group 197" transform="translate(143.615 5.12)">
          <path id="Path_406" data-name="Path 406" class="cls-1" d="M167.259,17.168a103.911,103.911,0,0,0-3.443,11.3c-.265.971-1.324,3.708.088,4.326,1.5.706,4.59-4.061,8.033-10.064.795-1.412,1.589-2.825,2.3-4.237a28.6,28.6,0,0,0,1.677-4.149c.53-2.03.441-3.972-1.5-4.767A4.431,4.431,0,0,0,173.35,9.4c-3.266,0-5.3,5.561-6.091,7.768" transform="translate(-163.186 -9.4)"/>
          <g id="Group_196" data-name="Group 196" class="cls-7">
            <path id="Path_407" data-name="Path 407" class="cls-3" d="M162.23,8.3,160.2,33.194l15.625,1.148,2.03-24.894Z" transform="translate(-162.836 -9.271)"/>
          </g>
          <path id="Path_409" data-name="Path 409" class="cls-4" d="M167.259,17.168a103.911,103.911,0,0,0-3.443,11.3c-.265.971-1.324,3.708.088,4.326,1.5.706,4.59-4.061,8.033-10.064.795-1.412,1.589-2.825,2.3-4.237a28.6,28.6,0,0,0,1.677-4.149c.53-2.03.441-3.972-1.5-4.767A4.431,4.431,0,0,0,173.35,9.4c-3.266,0-5.3,5.561-6.091,7.768" transform="translate(-163.186 -9.4)"/>
        </g>
        <g id="Group_199" data-name="Group 199" transform="translate(158.412 40.961)">
          <path id="Path_410" data-name="Path 410" class="cls-1" d="M188.027,51.854c-1.5,1.059-9.181,5.208-7.945,7.68.794,1.5,4.944.265,9.887-1.412a68.9,68.9,0,0,0,8.122-4.149C197.12,51.148,195.354,50,193.236,50a9.6,9.6,0,0,0-5.208,1.854" transform="translate(-179.948 -50)"/>
          <g id="Group_198" data-name="Group 198" class="cls-8">
            <path id="Path_411" data-name="Path 411" class="cls-3" d="M186.83,37,173.5,54.479l15.007,16.508,13.418-17.479Z" transform="translate(-179.192 -48.476)"/>
          </g>
          <path id="Path_413" data-name="Path 413" class="cls-4" d="M188.027,51.854c-1.5,1.059-9.181,5.208-7.945,7.68.794,1.5,4.944.265,9.887-1.412a68.9,68.9,0,0,0,8.122-4.149C197.12,51.148,195.354,50,193.236,50a9.6,9.6,0,0,0-5.208,1.854" transform="translate(-179.948 -50)"/>
        </g>
        <g id="Group_201" data-name="Group 201" transform="translate(134.27)">
          <path id="Path_414" data-name="Path 414" class="cls-1" d="M156.661,3.6c-4.414.441-3.972,8.916-4.061,11.829,0,3.8.353,7.68.618,11.476.088,1.059-.088,6.886,1.766,7.062,1.766.088,3-6.533,4.237-14.654.353-2.207.53-4.414.706-6.621a24.586,24.586,0,0,0,.088-4.414,7.078,7.078,0,0,0-.441-1.854c-.441-1.148-1.412-2.737-2.825-2.737a.086.086,0,0,0-.088-.088" transform="translate(-152.6 -3.6)"/>
          <g id="Group_200" data-name="Group 200" class="cls-9">
            <path id="Path_415" data-name="Path 415" class="cls-3" d="M144.2,5.732l7.68,30.544,14.389-5.032L158.5.7Z" transform="translate(-151.615 -3.26)"/>
          </g>
          <path id="Path_417" data-name="Path 417" class="cls-4" d="M156.661,3.6c-4.414.441-3.972,8.916-4.061,11.829,0,3.8.353,7.68.618,11.476.088,1.059-.088,6.886,1.766,7.062,1.766.088,3-6.533,4.237-14.654.353-2.207.53-4.414.706-6.621a24.586,24.586,0,0,0,.088-4.414,7.078,7.078,0,0,0-.441-1.854c-.441-1.148-1.412-2.737-2.825-2.737a.086.086,0,0,0-.088-.088" transform="translate(-152.6 -3.6)"/>
        </g>
        <g id="Group_203" data-name="Group 203" transform="translate(0 24.717)">
          <path id="Path_418" data-name="Path 418" class="cls-1" d="M8.18,41.752c0-2.472.794-4.414,3.178-4.414s3.178,1.942,3.178,4.414v2.737H8.18ZM.5,45.195v6.8c0,8.3,1.236,13.683,11.211,13.683,6,0,9.975-3.531,9.975-9.446,0-2.913-1.589-3.619-3.708-3.619-2.03,0-3.531.706-3.619,3.884-.088,1.766-1.236,3.355-2.825,3.355-3,0-3.355-3.09-3.355-6.974V49.608H17.8c3.708,0,4.061-2.3,4.061-5.208,0-8.563-2.56-12.8-10.24-12.8C1.736,31.512.5,36.9.5,45.195" transform="translate(-0.5 -31.599)"/>
          <g id="Group_202" data-name="Group 202" class="cls-10">
            <rect id="Rectangle_474" data-name="Rectangle 474" class="cls-3" width="21.451" height="34.163" transform="translate(0 -0.087)"/>
          </g>
          <path id="Path_420" data-name="Path 420" class="cls-4" d="M8.18,41.752c0-2.472.794-4.414,3.178-4.414s3.178,1.942,3.178,4.414v2.737H8.18ZM.5,45.195v6.8c0,8.3,1.236,13.683,11.211,13.683,6,0,9.975-3.531,9.975-9.446,0-2.913-1.589-3.619-3.708-3.619-2.03,0-3.531.706-3.619,3.884-.088,1.766-1.236,3.355-2.825,3.355-3,0-3.355-3.09-3.355-6.974V49.608H17.8c3.708,0,4.061-2.3,4.061-5.208,0-8.563-2.56-12.8-10.24-12.8C1.736,31.512.5,36.9.5,45.195" transform="translate(-0.5 -31.599)"/>
        </g>
        <g id="Group_205" data-name="Group 205" transform="translate(18.715 13.771)">
          <path id="Path_421" data-name="Path 421" class="cls-1" d="M29.38,49.656V45.418c0-7.15.706-9.181,3.178-9.181,1.766,0,3.619,1.324,3.619,7.857v6.179c0,4.679-.794,7.945-3.708,7.945-2.737,0-3.09-3.178-3.09-8.563m6.8-25.953V33.854h-.088a7.218,7.218,0,0,0-6.533-3.8c-6.621,0-7.857,6-7.857,12.712v8.739c0,6.709,1.236,12.712,7.857,12.712a7.057,7.057,0,0,0,6.533-3.8h.088a3.592,3.592,0,0,0,3.708,3.8c2.207,0,3.708-1.412,3.708-4.414V23.614c0-3-1.412-4.414-3.708-4.414-2.3.088-3.708,1.5-3.708,4.5" transform="translate(-21.7 -19.2)"/>
          <g id="Group_204" data-name="Group 204" class="cls-11">
            <rect id="Rectangle_475" data-name="Rectangle 475" class="cls-3" width="21.804" height="44.933" transform="translate(0 0.088)"/>
          </g>
          <path id="Path_423" data-name="Path 423" class="cls-4" d="M29.38,49.656V45.418c0-7.15.706-9.181,3.178-9.181,1.766,0,3.619,1.324,3.619,7.857v6.179c0,4.679-.794,7.945-3.708,7.945-2.737,0-3.09-3.178-3.09-8.563m6.8-25.953V33.854h-.088a7.218,7.218,0,0,0-6.533-3.8c-6.621,0-7.857,6-7.857,12.712v8.739c0,6.709,1.236,12.712,7.857,12.712a7.057,7.057,0,0,0,6.533-3.8h.088a3.592,3.592,0,0,0,3.708,3.8c2.207,0,3.708-1.412,3.708-4.414V23.614c0-3-1.412-4.414-3.708-4.414-2.3.088-3.708,1.5-3.708,4.5" transform="translate(-21.7 -19.2)"/>
        </g>
        <g id="Group_207" data-name="Group 207" transform="translate(37.871 24.629)">
          <path id="Path_424" data-name="Path 424" class="cls-1" d="M57.524,35.914V53.481c0,4.061-1.236,5.826-3.884,5.826-1.854,0-2.825-1.059-2.825-3.443V35.914c0-3-1.412-4.414-3.708-4.414S43.4,32.912,43.4,35.914V57.63c0,5.561,2.913,8.033,7.062,8.033a7.334,7.334,0,0,0,6.886-4.237h.088c0,2.825,1.412,4.237,3.708,4.237,2.207,0,3.708-1.412,3.708-4.414V35.914c0-3-1.412-4.414-3.708-4.414-2.207,0-3.619,1.412-3.619,4.414" transform="translate(-43.4 -31.5)"/>
          <g id="Group_206" data-name="Group 206" class="cls-12" transform="translate(0 0)">
            <rect id="Rectangle_476" data-name="Rectangle 476" class="cls-3" width="21.363" height="34.163" transform="translate(0.088)"/>
          </g>
          <path id="Path_426" data-name="Path 426" class="cls-4" d="M57.524,35.914V53.481c0,4.061-1.236,5.826-3.884,5.826-1.854,0-2.825-1.059-2.825-3.443V35.914c0-3-1.412-4.414-3.708-4.414S43.4,32.912,43.4,35.914V57.63c0,5.561,2.913,8.033,7.062,8.033a7.334,7.334,0,0,0,6.886-4.237h.088c0,2.825,1.412,4.237,3.708,4.237,2.207,0,3.708-1.412,3.708-4.414V35.914c0-3-1.412-4.414-3.708-4.414-2.207,0-3.619,1.412-3.619,4.414" transform="translate(-43.4 -31.5)"/>
        </g>
        <g id="Group_209" data-name="Group 209" transform="translate(94.192 24.629)">
          <path id="Path_427" data-name="Path 427" class="cls-1" d="M114.527,51.98V45.536c0-6.533,1.854-7.945,3.619-7.945,2.472,0,3.178,2.03,3.178,9.181v4.59c0,5.385-.353,8.563-3.09,8.563-2.913,0-3.708-3.266-3.708-7.945m.177-16.066h-.088c0-3-1.412-4.414-3.708-4.414s-3.708,1.412-3.708,4.414V72.99c0,3,1.412,4.414,3.708,4.414s3.708-1.412,3.708-4.414V62.044h.088a7.048,7.048,0,0,0,6.533,3.708c6.621,0,7.857-6,7.857-12.712V44.3c0-6.709-1.236-12.712-7.857-12.712a7.055,7.055,0,0,0-6.533,4.326" transform="translate(-107.2 -31.5)"/>
          <g id="Group_208" data-name="Group 208" class="cls-13" transform="translate(0 0)">
            <rect id="Rectangle_477" data-name="Rectangle 477" class="cls-3" width="21.804" height="45.904" transform="translate(0)"/>
          </g>
          <path id="Path_429" data-name="Path 429" class="cls-4" d="M114.527,51.98V45.536c0-6.533,1.854-7.945,3.619-7.945,2.472,0,3.178,2.03,3.178,9.181v4.59c0,5.385-.353,8.563-3.09,8.563-2.913,0-3.708-3.266-3.708-7.945m.177-16.066h-.088c0-3-1.412-4.414-3.708-4.414s-3.708,1.412-3.708,4.414V72.99c0,3,1.412,4.414,3.708,4.414s3.708-1.412,3.708-4.414V62.044h.088a7.048,7.048,0,0,0,6.533,3.708c6.621,0,7.857-6,7.857-12.712V44.3c0-6.709-1.236-12.712-7.857-12.712a7.055,7.055,0,0,0-6.533,4.326" transform="translate(-107.2 -31.5)"/>
        </g>
        <g id="Group_211" data-name="Group 211" transform="translate(75.036 24.629)">
          <path id="Path_430" data-name="Path 430" class="cls-1" d="M93.092,56.041c0-2.737.618-3.884,3.884-6.179l2.56-1.766v5.738c0,3.443-1.412,6.091-3.884,6.091-1.5,0-2.56-1.412-2.56-3.884m-7.327-15.8c0,2.207,2.207,3,3.884,3,1.942,0,3.355-.883,3.531-2.383.265-2.56,1.059-3.884,3.619-3.884,1.854,0,2.825,1.5,2.825,3.266a3.768,3.768,0,0,1-2.383,3.443l-6.533,3.443c-3.884,2.03-5.208,4.855-5.208,9.8,0,6.179,3.266,8.739,7.592,8.739A7.04,7.04,0,0,0,99.8,61.6l.088-.088c0,3.178,1.854,4.149,3.884,4.149,2.383,0,3.708-.971,3.708-2.913,0-1.059-.441-2.737-.441-4.855V41.122c0-5.3-1.059-9.622-10.946-9.622-5.738,0-10.328,3.09-10.328,8.739" transform="translate(-85.5 -31.5)"/>
          <g id="Group_210" data-name="Group 210" class="cls-14">
            <rect id="Rectangle_478" data-name="Rectangle 478" class="cls-3" width="21.981" height="34.163" transform="translate(-0.088 0)"/>
          </g>
          <path id="Path_432" data-name="Path 432" class="cls-4" d="M93.092,56.041c0-2.737.618-3.884,3.884-6.179l2.56-1.766v5.738c0,3.443-1.412,6.091-3.884,6.091-1.5,0-2.56-1.412-2.56-3.884m-7.327-15.8c0,2.207,2.207,3,3.884,3,1.942,0,3.355-.883,3.531-2.383.265-2.56,1.059-3.884,3.619-3.884,1.854,0,2.825,1.5,2.825,3.266a3.768,3.768,0,0,1-2.383,3.443l-6.533,3.443c-3.884,2.03-5.208,4.855-5.208,9.8,0,6.179,3.266,8.739,7.592,8.739A7.04,7.04,0,0,0,99.8,61.6l.088-.088c0,3.178,1.854,4.149,3.884,4.149,2.383,0,3.708-.971,3.708-2.913,0-1.059-.441-2.737-.441-4.855V41.122c0-5.3-1.059-9.622-10.946-9.622-5.738,0-10.328,3.09-10.328,8.739" transform="translate(-85.5 -31.5)"/>
        </g>
        <g id="Group_213" data-name="Group 213" transform="translate(57.292 24.802)">
          <path id="Path_433" data-name="Path 433" class="cls-1" d="M65.4,45.647v6c0,7.857.971,14.124,10.77,14.124,8.651,0,10.152-6.886,10.152-10.152,0-2.737-1.412-4.237-3.619-4.237-2.383,0-3.531,1.148-3.708,5.3-.088,2.56-1.412,3.355-2.737,3.355-2.383,0-3.09-2.3-3.09-7.68V45.118c0-4.326.177-7.68,3.09-7.68,1.589,0,2.737,1.059,2.737,3.178,0,3,1.236,4.149,3.708,4.149,2.03,0,3.619-1.236,3.619-4.149S84.556,31.7,76.17,31.7c-9.8-.177-10.77,6.091-10.77,13.948" transform="translate(-65.4 -31.696)"/>
          <g id="Group_212" data-name="Group 212" class="cls-15" transform="translate(0 0)">
            <rect id="Rectangle_479" data-name="Rectangle 479" class="cls-3" width="21.01" height="34.163" transform="translate(0 -0.173)"/>
          </g>
          <path id="Path_435" data-name="Path 435" class="cls-4" d="M65.4,45.647v6c0,7.857.971,14.124,10.77,14.124,8.651,0,10.152-6.886,10.152-10.152,0-2.737-1.412-4.237-3.619-4.237-2.383,0-3.531,1.148-3.708,5.3-.088,2.56-1.412,3.355-2.737,3.355-2.383,0-3.09-2.3-3.09-7.68V45.118c0-4.326.177-7.68,3.09-7.68,1.589,0,2.737,1.059,2.737,3.178,0,3,1.236,4.149,3.708,4.149,2.03,0,3.619-1.236,3.619-4.149S84.556,31.7,76.17,31.7c-9.8-.177-10.77,6.091-10.77,13.948" transform="translate(-65.4 -31.696)"/>
        </g>
      </g>
    </g>
  </g>
</svg>
