<svg xmlns="http://www.w3.org/2000/svg" viewBox="0 0 161.198 122.012">
  <defs>
    <style>
      .cls-1 {
        fill: #fff;
      }
    </style>
  </defs>
  <g id="noun_Make-up_Artist_858301_1_" data-name="noun_Make-up Artist_858301 (1)" transform="translate(91 -20.851)">
    <g id="Group_155" data-name="Group 155" transform="translate(-91 20.851)">
      <path id="Path_56" data-name="Path 56" class="cls-1" d="M40.077,120.765V65.192H5.344V0H0V120.765H40.077Z"/>
      <rect id="Rectangle_684" data-name="Rectangle 684" class="cls-1" width="11.756" height="4.631" transform="translate(26.006 57.889)"/>
      <rect id="Rectangle_685" data-name="Rectangle 685" class="cls-1" width="13.18" height="10.331" transform="translate(8.906 52.189)"/>
      <circle id="Ellipse_49" data-name="Ellipse 49" class="cls-1" cx="10.687" cy="10.687" r="10.687" transform="translate(115.601 30.086) rotate(-62.905)"/>
      <path id="Path_57" data-name="Path 57" class="cls-1" d="M198.382,163.016a5.332,5.332,0,0,0-.034,1.1l2.136,28.5a5.344,5.344,0,0,0,5.323,4.944c.134,0,.269-.005.406-.015a5.344,5.344,0,0,0,4.93-5.727l-1.754-23.367,1.074-.121a3.207,3.207,0,0,0,3.188,2.87h9.434Z" transform="translate(-92.353 -75.907)"/>
      <ellipse id="Ellipse_50" data-name="Ellipse 50" class="cls-1" cx="12.02" cy="12.02" rx="12.02" ry="12.02" transform="matrix(0.549, -0.836, 0.836, 0.549, 62.991, 24.401)"/>
      <path id="Path_58" data-name="Path 58" class="cls-1" d="M107.242,75.331a5.344,5.344,0,0,1,4.418-8.343,5.414,5.414,0,0,1,1.012.1l8.341,1.6a6.472,6.472,0,0,0-2.6-4.074c-3.887-2.643-10.949-2.6-16.178,3.808-7.137,8.86-10.3,15.174-13.1,26.791-1.327,8.173,3.265,11.183,7.67,12.867l16.653,9.991L101.325,140.69A6.68,6.68,0,1,0,113.1,147l15.139-28.233a6.674,6.674,0,0,0-2.451-8.884L107.75,99.065c2.541-7.377,7.2-14.552,10.548-20.019l-7.641-1.465A5.311,5.311,0,0,1,107.242,75.331Z" transform="translate(-41.396 -29.317)"/>
      <path id="Path_59" data-name="Path 59" class="cls-1" d="M257.28,151.871c0-.99-5.665-1.807-13.025-1.94V127.112h14.737l7.874-55.12a3.206,3.206,0,1,0-6.347-.907L253.93,117.2l2.994,5.593-17.935,4.319h1.036v22.819c-7.36.133-13.025.951-13.025,1.94,0,1.082,6.778,1.96,15.14,1.96S257.28,152.953,257.28,151.871Z" transform="translate(-105.701 -31.818)"/>
      <path id="Path_60" data-name="Path 60" class="cls-1" d="M222.969,127.638l16.635-4.61-6.494-14.844-1.123-2.565h-.015c-5.691-17.472,1.845-19.914.232-26.82-.96-4.111-4.164-6.844-6.028-7.351-4.1-1.113-7.428-.879-11.331,4.317a16.431,16.431,0,0,0-3.831,9.272c-.239,3.985,1.426,6.816,4.057,7.614q.5-1.153.93-2.357a33.613,33.613,0,0,0,1.948-10.681c0-.291-.006-.472-.01-.53a4.285,4.285,0,0,1,3.994-4.557c.092-.005.185-.009.277-.009a4.283,4.283,0,0,1,4.262,4c.005.116.027.487.028,1.092a41.9,41.9,0,0,1-2.432,13.525,42.487,42.487,0,0,1-14.072,19.476,4.232,4.232,0,0,1-2.624.9h0A4.261,4.261,0,0,1,204,111.863c-.017-.022-.03-.045-.047-.067l-9.919,5.834.5.173Z" transform="translate(-90.349 -33.017)"/>
      <path id="Path_61" data-name="Path 61" class="cls-1" d="M216.2,116.52a3.193,3.193,0,0,0,1.969-.678,41.547,41.547,0,0,0,16.092-32.155c0-.606-.022-.963-.026-1.026a3.206,3.206,0,0,0-6.4.41v.005c0,.058.012.268.012.61a35.137,35.137,0,0,1-13.619,27.1,3.207,3.207,0,0,0,1.972,5.737Z" transform="translate(-99.177 -37.093)"/>
      <path id="Path_62" data-name="Path 62" class="cls-1" d="M201.026,55.245s3.874-2.452,3.874-5.477-3.874-5.477-3.874-5.477L198,48.566h-2.3a5.368,5.368,0,0,1,.916,2.4H198Z" transform="translate(-91.126 -20.624)"/>
      <path id="Path_63" data-name="Path 63" class="cls-1" d="M176.214,52.291h-3.547v2.4h1.948l1.52-2.3C176.159,52.359,176.189,52.327,176.214,52.291Z" transform="translate(-80.401 -24.349)"/>
      <path id="Path_64" data-name="Path 64" class="cls-1" d="M160.055,50.708a4.276,4.276,0,0,0-5.924,1.209L145.283,65.3l-16.7-3.2a4.275,4.275,0,1,0-1.61,8.4l19.5,3.741a4.266,4.266,0,0,0,4.371-1.841l10.42-15.763A4.275,4.275,0,0,0,160.055,50.708Z" transform="translate(-57.506 -23.282)"/>
      <path id="Path_65" data-name="Path 65" class="cls-1" d="M211.866,31.183a2.85,2.85,0,1,0-2.85,2.849A2.852,2.852,0,0,0,211.866,31.183Zm-2.85,1.782a1.781,1.781,0,1,1,1.781-1.782A1.784,1.784,0,0,1,209.016,32.965Z" transform="translate(-96 -13.193)"/>
      <path id="Path_66" data-name="Path 66" class="cls-1" d="M195.682,40.451a2.85,2.85,0,1,0-2.85-2.85A2.85,2.85,0,0,0,195.682,40.451Zm0-4.632A1.782,1.782,0,1,1,193.9,37.6,1.784,1.784,0,0,1,195.682,35.819Z" transform="translate(-89.791 -16.181)"/>
    </g>
  </g>
</svg>
