<svg id="Group_158" data-name="Group 158" xmlns="http://www.w3.org/2000/svg" viewBox="0 0 250.25 153.772">
  <defs>
    <style>
      .cls-1 {
        fill: #fff;
      }
    </style>
  </defs>
  <path id="Path_79" data-name="Path 79" class="cls-1" d="M174.7,0c1.1.2,2.1.4,3.2.7a19.337,19.337,0,0,1,13.9,20.4c-.7,8.3-7.8,15.8-16.4,17a19.153,19.153,0,0,1-21.8-20.3c.6-9,8.1-16.9,16.7-17.6,1.4-.1,2.8.2,4.1-.2Zm-2,36a16.9,16.9,0,1,0-16.8-16.9A16.859,16.859,0,0,0,172.7,36Z"/>
  <path id="Path_80" data-name="Path 80" class="cls-1" d="M77.5.2C85,.8,92.1,7.1,93.8,14.7A19.128,19.128,0,1,1,72,.3c.2,0,.6.1.7-.3h.5C74.6.4,76.1.1,77.5.2ZM75.1,36A16.9,16.9,0,1,0,58.3,19,16.9,16.9,0,0,0,75.1,36Z"/>
  <path id="Path_81" data-name="Path 81" class="cls-1" d="M0,130.3H.3v22.9a.367.367,0,0,0-.3.1Z"/>
  <path id="Path_82" data-name="Path 82" class="cls-1" d="M77.5.2C76.1.1,74.6.4,73.2,0h4.3Z"/>
  <path id="Path_83" data-name="Path 83" class="cls-1" d="M174.5,0c-1.4.4-2.7.1-4.1.2,0-.1.1-.1,0-.2Z"/>
  <path id="Path_84" data-name="Path 84" class="cls-1" d="M123.8,38.9h97c1.2,0,1.5.2,1.5,1.5-.1,13.1,0,26.2,0,39.2,0,1.1-.3,1.3-1.3,1.3-4-.1-8,0-12-.1-1.1,0-1.3.4-1.3,1.3,0,12.7,0,25.4.1,38.2,0,1.2-.3,1.4-1.4,1.4-55,0-109.9,0-164.9-.3-1.1,0-1.4-.3-1.4-1.4V82.1c0-1-.2-1.4-1.3-1.3-4.1.1-8.2,0-12.2.1-.8,0-1.2-.1-1.2-1.1V40.1c0-1.2.5-1.1,1.3-1.1h97.1S123.8,38.9,123.8,38.9ZM58,79.7c20.9-12.8,41.6-25.5,62.4-38.2,0-.1,0-.1-.1-.2H28.7c-.9,0-1.1.2-1.1,1.1V77.6c0,.9.2,1.2,1.1,1.1,4-.1,8,0,12-.1,1.1,0,1.5.2,1.5,1.5-.1,12.6,0,25.1-.1,37.7,0,1.2.3,1.5,1.5,1.5l75.9.3c.3,0,.7.2,1-.2C99.8,106.1,79,93,58,79.7Zm69.4-38.4c0,.1,0,.1-.1.2q31.35,19.05,62.9,38.2C169,93,148,106.2,127,119.3c0,.1.1.1.1.2h77.3c1,0,1.1-.4,1.1-1.2V79.9c0-1.1.3-1.4,1.4-1.3,3.9.1,7.8,0,11.6.1,1.2,0,1.5-.2,1.5-1.5-.1-11.5-.1-23,0-34.6,0-1.2-.2-1.5-1.5-1.5-30,.1-60,.1-90,.2ZM62.3,79.8a8.794,8.794,0,0,0,1,.6C83.1,92.9,103,105.5,122.8,118a1.521,1.521,0,0,0,2,0q25.8-16.2,51.7-32.4c3.1-2,6.3-3.9,9.5-5.9-.4-.3-.7-.5-1-.7-20.1-12.2-40.1-24.4-60.2-36.6a1.649,1.649,0,0,0-2,0C103,54.7,83.1,66.9,63.3,79A3.511,3.511,0,0,0,62.3,79.8Z"/>
  <path id="Path_85" data-name="Path 85" class="cls-1" d="M.3,153.3V130.4c3.1,0,6.2-.2,9.2.1,3.4.4,5.2,3,4.8,6.4a4.977,4.977,0,0,1-3.3,4.3c4,1.8,5.2,6,2.9,9.5-1.3,2.1-3.5,2.5-5.6,2.6C5.6,153.4,2.9,153.3.3,153.3Zm3.5-6.9v3.1c0,.3-.1.7.4.7,1.6-.1,3.2.2,4.7-.3s2.2-1.8,2.1-3.8A3.13,3.13,0,0,0,8.5,143a15.334,15.334,0,0,0-3.7-.2c-.8,0-1.2.1-1.1,1A11.539,11.539,0,0,1,3.8,146.4Zm2.5-13.1H4.6c-.5,0-.8.1-.8.7v5.2c0,.5.1.7.7.7a20.554,20.554,0,0,0,3.5-.2,2.653,2.653,0,0,0,2.3-2.3c.5-2.5-.6-3.9-3.1-4.1Z"/>
  <path id="Path_86" data-name="Path 86" class="cls-1" d="M41,151a5.3,5.3,0,0,1-3.2,2.5,4.655,4.655,0,0,1-5.8-2.7,5.723,5.723,0,0,1,2.6-7.1,12.873,12.873,0,0,1,4.8-1c1.6,0,1.6,0,1.5-1.7-.2-2-1.2-2.9-2.9-2.6a2.347,2.347,0,0,0-2,1.8c-.2.7-.6.8-1.2.7-.4-.1-.7-.1-1.1-.2-1.5-.2-1.6-.4-.9-1.7a5.822,5.822,0,0,1,3.7-3,8.217,8.217,0,0,1,4.4,0,4.419,4.419,0,0,1,3.5,4.7c.1,2.8,0,5.6.1,8.4,0,1.2.1,2.3.2,3.5,0,.5-.1.7-.6.7a6.381,6.381,0,0,1-2.4-.1C40.8,152.9,41.6,151.8,41,151Zm-.1-4.7c-.2-.3.4-1-.4-1.3a5.359,5.359,0,0,0-4.5,1.4,3.581,3.581,0,0,0-.3,3.6,1.881,1.881,0,0,0,1.9,1.1,2.917,2.917,0,0,0,2.7-2A6.088,6.088,0,0,0,40.9,146.3Z"/>
  <path id="Path_87" data-name="Path 87" class="cls-1" d="M168.8,138.4c0-2.6.1-4.9,0-7.2,0-1.3.9-.8,1.4-.9.7-.1,1.2-.1,1.2.9-.1,7,0,14.1,0,21.1,0,.9-.3,1.1-1.1,1-.7,0-1.4.1-1.3-1a6.533,6.533,0,0,0,0-1.4c-.5,0-.6.4-.8.7a5.269,5.269,0,0,1-7.7.8,8.3,8.3,0,0,1-2.7-4.8,12.77,12.77,0,0,1,.6-7.5C160.2,135.4,165.6,134.2,168.8,138.4Zm-.1,6.3a26.132,26.132,0,0,0,0-2.8,4.281,4.281,0,0,0-3.7-4c-2-.2-3.5.9-4.2,3.1a11.639,11.639,0,0,0,.2,7.6c1.1,3.2,4.4,3.7,6.6,1.1C168.9,148.4,168.8,146.5,168.7,144.7Z"/>
  <path id="Path_88" data-name="Path 88" class="cls-1" d="M187.9,150.6c-1.5,2.6-3.7,3.4-6.5,3a5.015,5.015,0,0,1-4.5-4,5.435,5.435,0,0,1,2.9-5.9,12.919,12.919,0,0,1,7-1c1.1.1,1.2-.3,1.1-1.2-.1-2.1-.9-3.2-2.6-3.5-2.7-.5-4.9.2-5.5,2.1-.5,1.5-1.5.6-2.1.4-.9-.2-.3-.9-.1-1.3a5.265,5.265,0,0,1,3.7-3.1,11.943,11.943,0,0,1,4.6-.3,4.693,4.693,0,0,1,4.3,4.7,82.25,82.25,0,0,1,.1,8.6,21.749,21.749,0,0,0,.1,2.6c.1,1.6.1,1.5-1.4,1.5-.8,0-1-.3-1-1A1.833,1.833,0,0,0,187.9,150.6Zm-2-5.9a8.736,8.736,0,0,0-4.8,1.1,3.348,3.348,0,0,0-1.5,3.6,2.938,2.938,0,0,0,2.9,2.2,5.214,5.214,0,0,0,5.4-4.6C188.3,144.8,188.2,144.7,185.9,144.7Z"/>
  <path id="Path_89" data-name="Path 89" class="cls-1" d="M83.3,141.7V131.3c0-.8.1-1,1-1,3.8,0,7.6.1,11.4,0,1.1,0,1,.6,1,1.3s.2,1.4-1,1.4c-2.8-.1-5.7,0-8.5,0-.8,0-1,.2-1,1a45.1,45.1,0,0,1,0,5.2c0,.8.2,1.1,1.1,1.1,2.2-.1,4.5,0,6.7,0,1.1,0,1,.6,1,1.3s0,1.2-1,1.1c-2.2-.1-4.5,0-6.7,0-.8,0-1.1.2-1.1,1.1v8.9c0,.8-.2,1-1,1-1.8,0-1.8,0-1.8-1.8C83.3,148.3,83.3,145,83.3,141.7Z"/>
  <path id="Path_90" data-name="Path 90" class="cls-1" d="M114,144.7a9.383,9.383,0,0,1-2.2,6.7,6.568,6.568,0,0,1-10.8-1.1,11.69,11.69,0,0,1-.6-10,6.891,6.891,0,0,1,7.4-4.5,7.094,7.094,0,0,1,5.9,5.9A8.057,8.057,0,0,1,114,144.7Zm-11.6-.1a9.567,9.567,0,0,0,.8,4.4,3.783,3.783,0,0,0,3.4,2.4,3.553,3.553,0,0,0,3.7-2.1,10.287,10.287,0,0,0,.1-8.9,3.79,3.79,0,0,0-3.7-2.4,3.89,3.89,0,0,0-3.6,2.5A9.858,9.858,0,0,0,102.4,144.6Z"/>
  <path id="Path_91" data-name="Path 91" class="cls-1" d="M231.9,144.9a9.046,9.046,0,0,1-2.2,6.5,6.526,6.526,0,0,1-10.8-1.1,11.567,11.567,0,0,1-.6-10.1,6.809,6.809,0,0,1,7.3-4.4,7.094,7.094,0,0,1,5.9,5.9A11.7,11.7,0,0,1,231.9,144.9Zm-11.6-.2a8.432,8.432,0,0,0,.8,4.4,3.723,3.723,0,0,0,3.5,2.3,3.423,3.423,0,0,0,3.6-2.1,10.508,10.508,0,0,0,.1-9,3.578,3.578,0,0,0-3.7-2.3,4.021,4.021,0,0,0-3.5,2.5A8.758,8.758,0,0,0,220.3,144.7Z"/>
  <path id="Path_92" data-name="Path 92" class="cls-1" d="M239.9,139.1c.5-.7.8-1.1,1.1-1.5a4.906,4.906,0,0,1,5.3-1.7,4.671,4.671,0,0,1,3.7,4.2c.4,4.1.2,8.3.2,12.5,0,1.2-1,.5-1.6.6-.6.2-.8-.2-.8-.8v-9.6a10.868,10.868,0,0,0-.1-1.8,3.341,3.341,0,0,0-5.5-2.3,6.125,6.125,0,0,0-2.2,5.2c0,2.7-.1,5.4,0,8.1,0,1.2-.5,1.1-1.4,1.1-.9.1-1.2-.2-1.2-1.2,0-5,.1-9.9,0-14.9,0-1,.4-1,1.2-1,.7,0,1.4,0,1.2,1A14.768,14.768,0,0,1,239.9,139.1Z"/>
  <path id="Path_93" data-name="Path 93" class="cls-1" d="M55.5,139H50.2c-.7,0-1-.1-1-.9,0-1.8,0-1.8,1.8-1.8h7.1c1.6,0,2.1.7,1.5,2.3a2.177,2.177,0,0,1-.5.8l-6,10.2c-.6.9-.3,1.1.6,1.1,1.5-.1,3,.1,4.6,0,1.3-.1,1.6.4,1.4,1.5-.1.4.4,1.2-.6,1.2H49.3c-.3,0-.6,0-.6-.4.1-1.1-.2-2.1.5-3.1,2-3.2,3.9-6.5,5.8-9.8C55.2,139.7,55.3,139.4,55.5,139Z"/>
  <path id="Path_94" data-name="Path 94" class="cls-1" d="M141.6,139.1c.6-.7,1-1.3,1.5-1.8a4.593,4.593,0,0,1,5.2-1.2,4.459,4.459,0,0,1,3.4,4c.5,4.2.2,8.4.2,12.6,0,1.1-.9.5-1.5.6-.6.2-.9,0-.9-.8v-10a9.7,9.7,0,0,0-.1-1.7,3.269,3.269,0,0,0-5.5-1.9,5.209,5.209,0,0,0-2,4.3c0,3-.1,6,0,9,0,1.1-.5,1.1-1.3,1.1-.7,0-1.3.1-1.3-1q.15-7.5,0-15c0-1,.5-1,1.2-1s1.4-.1,1.2,1A5.148,5.148,0,0,0,141.6,139.1Z"/>
  <path id="Path_95" data-name="Path 95" class="cls-1" d="M130.1,150.6a7.067,7.067,0,0,1-3.8,3,5.129,5.129,0,0,1-6.5-5c-.2-3.9-.1-7.7-.1-11.6,0-.5.2-.6.7-.7,1.8-.1,1.8-.1,1.8,1.7v8.6c0,.6.1,1.3.1,1.9a3,3,0,0,0,2.1,2.8,3.311,3.311,0,0,0,3.5-.9,6.191,6.191,0,0,0,1.9-4.6c0-2.9.1-5.8,0-8.6,0-1,.5-1,1.2-.9.6.1,1.4-.3,1.4.9-.1,5-.1,10.1,0,15.1,0,1.1-.5,1-1.2,1-.8.1-1.2-.2-1.1-1C130.1,151.7,130.1,151.2,130.1,150.6Z"/>
  <path id="Path_96" data-name="Path 96" class="cls-1" d="M77.1,142v10.3c0,.8-.1,1.1-1,1.1-2.6,0-2.6,0-2.6-2.5V131.7c0-1,.2-1.4,1.3-1.3,2.3.1,2.3,0,2.3,2.3Q77.1,137.2,77.1,142Z"/>
  <path id="Path_97" data-name="Path 97" class="cls-1" d="M23.8,139.8c.3-.7.5-1,.7-1.4a5.775,5.775,0,0,1,1.8-2c1.7-.9,2.3-.6,2.3,1.3v.6c.1,1-.1,1.5-1.3,1.4a3.15,3.15,0,0,0-2.9,2.5,9.863,9.863,0,0,0-.3,2.4v7.8c0,.7-.1,1-1,1-2.6,0-2.6,0-2.6-2.6V137.4c0-.8.2-1.1,1.1-1.1,2.1,0,2.1,0,2.1,2.1A5.313,5.313,0,0,1,23.8,139.8Z"/>
  <path id="Path_98" data-name="Path 98" class="cls-1" d="M197.7,144.4c0-1.6-.1-3.3,0-4.9,0-.9-.3-1.2-1.2-1.1h-.6c-.9.1-1.1-.2-1.2-1.1,0-1,.4-1,1.2-1,1.9,0,1.6.3,1.7-1.7a8.533,8.533,0,0,0,0-1.6c-.1-.7.1-1,.9-1.1,1.5-.1,1.5-.2,1.5,1.3,0,1-.3,2.2.1,2.8.5.7,1.8.2,2.7.2,1,0,.7.6.8,1.1,0,.6.1,1.2-.8,1h-.4c-2.4,0-2.4,0-2.4,2.4v7.9c0,2.3,1,3.2,3.3,2.9.4,0,1.2-.7,1.2.4,0,.7.4,1.7-1,1.6-.6,0-1.2.1-1.8.1-2.6-.2-4-1.6-4.1-4.2v-.6c.1-1.4.1-2.9.1-4.4Z"/>
  <path id="Path_99" data-name="Path 99" class="cls-1" d="M67.5,144.7v7.7c0,.7-.2.9-.9,1-2.6,0-2.6,0-2.6-2.6V137.4c0-.8.2-1.1,1.1-1.1,2.5,0,2.5,0,2.5,2.5C67.5,140.8,67.5,142.7,67.5,144.7Z"/>
  <path id="Path_100" data-name="Path 100" class="cls-1" d="M209.3,144.7c0-2.5.1-5,0-7.6,0-1.2.7-.9,1.3-.9s1.3-.2,1.3.9c-.1,5.1-.1,10.2,0,15.2,0,1.3-.8.8-1.5.9s-1.2,0-1.2-.9C209.4,149.8,209.3,147.2,209.3,144.7Z"/>
  <path id="Path_101" data-name="Path 101" class="cls-1" d="M65.6,130.3c2,0,2,0,2,2.2,0,1.6,0,1.6-2.3,1.6-1.4,0-1.3,0-1.5-2.5C63.7,129.8,64.8,130.4,65.6,130.3Z"/>
  <path id="Path_102" data-name="Path 102" class="cls-1" d="M211.9,131.9c.4,1.2-.3,1.4-1.4,1.4-1.6.1-1.1-.8-1.3-1.7-.2-1.3.5-1.3,1.5-1.4C212,130.2,212,130.9,211.9,131.9Z"/>
  <path id="Path_110" data-name="Path 110" class="cls-1" d="M143.3,80.4a19.15,19.15,0,1,1-19.2-19.1A19.249,19.249,0,0,1,143.3,80.4ZM124.1,63.5a16.9,16.9,0,1,0,16.9,17A16.858,16.858,0,0,0,124.1,63.5Z"/>
</svg>
