<svg xmlns="http://www.w3.org/2000/svg" viewBox="0 0 70.549 49.299">
  <defs>
    <style>
      .cls-1 {
        fill: #2e3192;
      }

      .cls-2 {
        fill: #fcaf17;
      }

      .cls-3 {
        fill: #f26522;
      }
    </style>
  </defs>
  <g id="VnW-Logo" transform="translate(-44.594 -80.7)">
    <g id="Group_120" data-name="Group 120" transform="translate(44.594 80.7)">
      <path id="Path_81" data-name="Path 81" class="cls-1" d="M155.337,137.9a3.549,3.549,0,1,0-3.537-3.537A3.507,3.507,0,0,0,155.337,137.9Z" transform="translate(-125.466 -118.494)"/>
      <path id="Path_82" data-name="Path 82" class="cls-1" d="M197.267,215.9A3.555,3.555,0,0,0,194,218.086h6.509A3.612,3.612,0,0,0,197.267,215.9Z" transform="translate(-157.3 -182.69)"/>
      <path id="Path_83" data-name="Path 83" class="cls-1" d="M272.962,223.1a3.549,3.549,0,1,0-3.562-3.537A3.543,3.543,0,0,0,272.962,223.1Z" transform="translate(-214.179 -182.765)"/>
      <path id="Path_84" data-name="Path 84" class="cls-1" d="M297.867,137.7a1.867,1.867,0,1,0,1.867,1.867A1.866,1.866,0,0,0,297.867,137.7Z" transform="translate(-234.245 -123.699)"/>
      <path id="Path_85" data-name="Path 85" class="cls-1" d="M92.372,89.666a3.236,3.236,0,0,0-.2-1.081,5.211,5.211,0,0,0,.59-2.481,5.391,5.391,0,0,0-10.587-1.449H78A3.011,3.011,0,0,0,75.423,86.1c-.319-.025-.639-.049-.983-.049A10.351,10.351,0,0,0,68.5,87.922c-.147-.123-.295-.246-.467-.368l-3.414-2.112a3.134,3.134,0,0,0-1.6-.442,3.056,3.056,0,0,0-2.579,1.425L57.025,91.95,53.61,86.423A3,3,0,0,0,51.031,85a3.2,3.2,0,0,0-1.6.442L46.02,87.553a2.96,2.96,0,0,0-1.351,1.891,3.1,3.1,0,0,0,.368,2.284l9.334,15.107-2.653,1.179a3.035,3.035,0,0,0-1.548,3.979l6.73,15.328a3.037,3.037,0,0,0,2.776,1.818h0a3.037,3.037,0,0,0,2.776-1.818l2.162-4.937,2.162,4.937a3.037,3.037,0,0,0,2.776,1.818h0a3.037,3.037,0,0,0,2.776-1.818l2.112-4.814A10.546,10.546,0,0,0,84.511,130h.59a3.019,3.019,0,0,0,3.021-3.021V123.1h1.941a3.061,3.061,0,0,0,.86,1.842l2.751,2.776a3.01,3.01,0,0,0,2.137.884h0a3.01,3.01,0,0,0,2.137-.884l.761-.761a10.532,10.532,0,1,0,4.618-19.995,4.164,4.164,0,0,0-.54.025v-1.4a3.753,3.753,0,0,0,.884-.172,3.07,3.07,0,0,0,1.965-2.334,6.693,6.693,0,0,0,2.432.467,3.078,3.078,0,0,0,1.965.737h2.088a3.019,3.019,0,0,0,3.021-3.021V91.9a3.019,3.019,0,0,0-3.021-3.021h-2.088a3.013,3.013,0,0,0-1.99.737,7.042,7.042,0,0,0-3.488,1.007,3.039,3.039,0,0,0-1.916-.688h-2.088a3.1,3.1,0,0,0-1.5.393l-1.3-1.695A3.015,3.015,0,0,0,92.4,90.55Zm3.046.884,5.208,6.288v-3.93h1.646a6.928,6.928,0,0,0,.442,7.91v1.719l-5.208-6.264v3.93H95.418ZM89.35,103.471H85.4v-13.8H89.35ZM87.385,83.746A2.358,2.358,0,1,1,85.027,86.1,2.313,2.313,0,0,1,87.385,83.746Zm-9.359,6.239V87.652h3.955v17.784H78.027v-2.309a7.122,7.122,0,0,1-3.562.933,7.475,7.475,0,0,1-7.492-7.492,7.626,7.626,0,0,1,.27-1.99L69.036,91.7a4,4,0,0,0,.27-.565,7.5,7.5,0,0,1,5.158-2.063A7.175,7.175,0,0,1,78.027,89.985ZM51.056,88l5.994,9.7L63.043,88l3.218,1.99a10.448,10.448,0,0,0-1.793,3.341l-7.418,11.987-9.408-15.2Zm18.521,38.1-4.937-11.25L59.7,126.094l-6.73-15.328,3.562-1.6,3.169,7.246,4.937-11.25,4.937,11.25,3.169-7.246,3.562,1.6-.172.368a10.231,10.231,0,0,0-1.941,4.446Zm11.471-6.043a3.6,3.6,0,0,0,3.488,2.972h.59v3.93h-.59a7.475,7.475,0,0,1-7.492-7.492v-1.99a6.7,6.7,0,0,1,.074-1.007l1.67-3.783a7.5,7.5,0,0,1,13.264,4.79v2.112l-.467.467Zm22.328-10.071a7.5,7.5,0,1,1-5.011,13.092l-2.505,2.506-2.7-2.7a2.93,2.93,0,0,0,1.744-1.867l.933-.933V105.632H99.79v5.281A7.285,7.285,0,0,1,103.376,109.98Zm8.794-8.745h-2.088v-1.2a3.65,3.65,0,0,1-1.867.491,3.877,3.877,0,0,1-2.481-.884V93.5a4.019,4.019,0,0,1,2.481-.884,3.65,3.65,0,0,1,1.867.491V91.876h2.088Z" transform="translate(-44.594 -80.7)"/>
    </g>
    <g id="Group_124" data-name="Group 124" transform="translate(47.641 83.77)">
      <g id="Group_121" data-name="Group 121" transform="translate(0 0)">
        <path id="Path_86" data-name="Path 86" class="cls-2" d="M66.408,120.1l5.994-9.7,3.414,2.112-9.408,15.2L57,112.512l3.414-2.112Z" transform="translate(-57 -106.175)"/>
        <path id="Path_87" data-name="Path 87" class="cls-2" d="M150.708,109.1v17.784h-3.955v-2.309a7.122,7.122,0,0,1-3.562.933,7.5,7.5,0,0,1,0-15.008,7.191,7.191,0,0,1,3.562.933V109.1h3.955Zm-11.054,8.917a3.549,3.549,0,0,0,7.1,0,3.564,3.564,0,0,0-3.562-3.562A3.528,3.528,0,0,0,139.655,118.017Z" transform="translate(-116.368 -105.194)"/>
        <path id="Path_88" data-name="Path 88" class="cls-2" d="M211.558,97.916a2.358,2.358,0,1,1,2.358-2.358A2.375,2.375,0,0,1,211.558,97.916Zm1.965,14.984h-3.955V99.1h3.955Z" transform="translate(-171.814 -93.2)"/>
      </g>
      <g id="Group_123" data-name="Group 123" transform="translate(5.355 21.42)">
        <g id="Group_122" data-name="Group 122">
          <path id="Path_89" data-name="Path 89" class="cls-2" d="M85.53,191.65l4.937-11.25,4.937,11.25,3.169-7.246,3.562,1.6-6.73,15.328-4.937-11.25-4.937,11.25L78.8,186l3.562-1.6Z" transform="translate(-78.8 -180.4)"/>
          <path id="Path_90" data-name="Path 90" class="cls-2" d="M184.192,212.943h.59v3.93h-.59a7.475,7.475,0,0,1-7.492-7.492v-1.99a7.5,7.5,0,0,1,15.008,0v2.579h-11A3.557,3.557,0,0,0,184.192,212.943Zm.025-9.113a3.555,3.555,0,0,0-3.267,2.186h6.509A3.612,3.612,0,0,0,184.216,203.83Z" transform="translate(-152.652 -195.11)"/>
          <path id="Path_91" data-name="Path 91" class="cls-2" d="M252.368,186.472a7.5,7.5,0,1,1-5.011,13.092l-2.505,2.505-2.751-2.776,2.751-2.751V182.1h3.955v5.281A7.371,7.371,0,0,1,252.368,186.472Zm-3.562,7.516a3.562,3.562,0,1,0,3.562-3.562A3.543,3.543,0,0,0,248.806,193.989Z" transform="translate(-201.987 -181.682)"/>
        </g>
      </g>
    </g>
    <g id="Group_125" data-name="Group 125" transform="translate(95.418 90.575)">
      <path id="Path_92" data-name="Path 92" class="cls-3" d="M258.8,132.887l-5.208-6.288v3.93H251.5V120.9l5.208,6.288v-3.93H258.8Z" transform="translate(-251.5 -120.9)"/>
      <path id="Path_93" data-name="Path 93" class="cls-3" d="M295.41,126.2v9.359h-2.088v-1.2a3.65,3.65,0,0,1-1.867.491,3.955,3.955,0,1,1,0-7.91,3.65,3.65,0,0,1,1.867.491V126.2Zm-5.822,4.692a1.867,1.867,0,1,0,1.867-1.867A1.866,1.866,0,0,0,289.588,130.892Z" transform="translate(-278.657 -124.898)"/>
    </g>
  </g>
</svg>
