<svg xmlns="http://www.w3.org/2000/svg" viewBox="0 0 133.912 115.382">
  <defs>
    <style>
      .cls-1 {
        fill: #fff;
      }
    </style>
  </defs>
  <g id="noun_chef_1092659" transform="translate(944.599 -994.1)">
    <g id="Group_156" data-name="Group 156" transform="translate(-944.599 994.1)">
      <path id="Path_67" data-name="Path 67" class="cls-1" d="M-918.163,1015.117l2.4-3.663,2.536-1.409a.45.45,0,0,0-.282-.845h-32.544c-.423,0-.7.7-.282.845l2.536,1.409,2.4,3.663a1.734,1.734,0,0,0,1.409.7h20.428A1.734,1.734,0,0,0-918.163,1015.117Z" transform="translate(946.549 -940.027)"/>
      <path id="Path_68" data-name="Path 68" class="cls-1" d="M-937.757,1009.239l.423.423a.789.789,0,0,0,.845.141c.282-.141.423-.423.282-.564h0a1.742,1.742,0,0,1-.282-.423,6.858,6.858,0,0,1-.423-.986,1.953,1.953,0,0,1,0-1.268,13.691,13.691,0,0,1,.7-1.55,18.008,18.008,0,0,0,.986-1.691,2.089,2.089,0,0,0,0-1.831,2.222,2.222,0,0,0-.7-1.127l-.423-.423c-.141-.141-.563-.141-.845-.141-.282.141-.423.423-.282.564h0a.491.491,0,0,1,.141.282,1.511,1.511,0,0,1,.282.845,1.989,1.989,0,0,1-.141,1.268,6.884,6.884,0,0,1-.986,1.55,4.152,4.152,0,0,0-.7,1.831,2.184,2.184,0,0,0,.282,1.691C-938.321,1008.676-938.039,1009.1-937.757,1009.239Z" transform="translate(949.659 -943.87)"/>
      <path id="Path_69" data-name="Path 69" class="cls-1" d="M-934.857,1009.239l.423.423a.789.789,0,0,0,.845.141c.282-.141.423-.423.282-.564h0a1.741,1.741,0,0,1-.282-.423,6.872,6.872,0,0,1-.423-.986,1.956,1.956,0,0,1,0-1.268,13.692,13.692,0,0,1,.7-1.55,17.981,17.981,0,0,0,.986-1.691,2.089,2.089,0,0,0,0-1.831,2.222,2.222,0,0,0-.7-1.127l-.423-.423c-.141-.141-.563-.141-.845-.141-.282.141-.423.423-.282.564h0a.492.492,0,0,1,.141.282,1.511,1.511,0,0,1,.282.845,1.989,1.989,0,0,1-.141,1.268,6.886,6.886,0,0,1-.986,1.55,4.151,4.151,0,0,0-.7,1.831,2.185,2.185,0,0,0,.282,1.691A3.422,3.422,0,0,0-934.857,1009.239Z" transform="translate(950.845 -943.87)"/>
      <path id="Path_70" data-name="Path 70" class="cls-1" d="M-931.857,1009.239l.423.423a.789.789,0,0,0,.845.141c.282-.141.423-.423.282-.564h0a1.742,1.742,0,0,1-.282-.423,6.858,6.858,0,0,1-.423-.986,1.953,1.953,0,0,1,0-1.268,13.691,13.691,0,0,1,.7-1.55,18.008,18.008,0,0,0,.986-1.691,2.089,2.089,0,0,0,0-1.831,2.222,2.222,0,0,0-.7-1.127l-.423-.423c-.141-.141-.563-.141-.845-.141-.282.141-.423.423-.282.564h0a.491.491,0,0,1,.141.282,1.511,1.511,0,0,1,.282.845,1.989,1.989,0,0,1-.141,1.268,6.888,6.888,0,0,1-.986,1.55,4.152,4.152,0,0,0-.7,1.831,2.184,2.184,0,0,0,.282,1.691C-932.42,1008.676-932.139,1009.1-931.857,1009.239Z" transform="translate(952.071 -943.87)"/>
      <path id="Path_71" data-name="Path 71" class="cls-1" d="M-842.214,1009.1h-32.544c-.423,0-.7.7-.282.845l2.536,1.409,2.395,3.663a1.734,1.734,0,0,0,1.409.7h20.428a1.956,1.956,0,0,0,1.409-.7l2.4-3.663,2.536-1.409C-841.65,1009.8-841.791,1009.1-842.214,1009.1Z" transform="translate(975.697 -940.068)"/>
      <path id="Path_72" data-name="Path 72" class="cls-1" d="M-866.557,1009.239l.423.423a.79.79,0,0,0,.845.141c.282-.141.423-.423.282-.564h0a1.744,1.744,0,0,1-.282-.423,6.871,6.871,0,0,1-.423-.986,1.956,1.956,0,0,1,0-1.268,13.714,13.714,0,0,1,.7-1.55,17.994,17.994,0,0,0,.986-1.691,2.09,2.09,0,0,0,0-1.831,2.223,2.223,0,0,0-.7-1.127l-.423-.423c-.141-.141-.564-.141-.845-.141-.282.141-.423.423-.282.564h0a.492.492,0,0,1,.141.282,1.51,1.51,0,0,1,.282.845,1.99,1.99,0,0,1-.141,1.268,6.891,6.891,0,0,1-.986,1.55,4.151,4.151,0,0,0-.7,1.831,2.185,2.185,0,0,0,.282,1.691A3.424,3.424,0,0,0-866.557,1009.239Z" transform="translate(978.767 -943.87)"/>
      <path id="Path_73" data-name="Path 73" class="cls-1" d="M-863.557,1009.239l.423.423a.789.789,0,0,0,.845.141c.282-.141.423-.423.282-.564h0a1.74,1.74,0,0,1-.282-.423,6.858,6.858,0,0,1-.423-.986,1.955,1.955,0,0,1,0-1.268,13.672,13.672,0,0,1,.7-1.55,18.008,18.008,0,0,0,.986-1.691,2.089,2.089,0,0,0,0-1.831,2.221,2.221,0,0,0-.7-1.127l-.423-.423c-.141-.141-.563-.141-.845-.141-.282.141-.423.423-.282.564h0a.492.492,0,0,1,.141.282,1.511,1.511,0,0,1,.282.845,1.989,1.989,0,0,1-.141,1.268,6.883,6.883,0,0,1-.986,1.55,4.15,4.15,0,0,0-.7,1.831,2.185,2.185,0,0,0,.282,1.691C-864.12,1008.676-863.839,1009.1-863.557,1009.239Z" transform="translate(979.993 -943.87)"/>
      <path id="Path_74" data-name="Path 74" class="cls-1" d="M-860.657,1009.239l.423.423a.789.789,0,0,0,.845.141c.282-.141.423-.423.282-.564h0a1.745,1.745,0,0,1-.282-.423,6.879,6.879,0,0,1-.423-.986,1.956,1.956,0,0,1,0-1.268,13.7,13.7,0,0,1,.7-1.55,17.955,17.955,0,0,0,.986-1.691,2.089,2.089,0,0,0,0-1.831,2.222,2.222,0,0,0-.7-1.127l-.423-.423c-.141-.141-.564-.141-.845-.141-.282.141-.423.423-.282.564h0a.492.492,0,0,1,.141.282,1.51,1.51,0,0,1,.282.845,1.989,1.989,0,0,1-.141,1.268,6.886,6.886,0,0,1-.986,1.55,4.151,4.151,0,0,0-.7,1.831,2.185,2.185,0,0,0,.282,1.691A3.424,3.424,0,0,0-860.657,1009.239Z" transform="translate(981.179 -943.87)"/>
      <path id="Path_75" data-name="Path 75" class="cls-1" d="M-897.782,1002.009a17.914,17.914,0,0,0-6.34,5.354c-2.4,3.24-10.425,18.737-10.425,18.737s-3.663-1.831-7.749-3.8c-.423-.282-.986-.423-1.409-.7h-14.229c-.7,2.536.141,5.072,3.522,6.621,3.8,1.832,21.273,10.707,22.823,11.13,1.691.423,3.663-.845,4.508-2.536l8.03-15.779-3.1,32.825a3.607,3.607,0,0,0,3.1,3.945,119.718,119.718,0,0,0,16.061,1.127c1.55,0,3.24,0,4.79-.141V1009.9l-16.483-9.3A20.743,20.743,0,0,0-897.782,1002.009Zm13.666,19.442a1.628,1.628,0,0,1,1.691,1.69,1.628,1.628,0,0,1-1.691,1.691,1.628,1.628,0,0,1-1.691-1.691A1.713,1.713,0,0,1-884.117,1021.451Zm0,7.748a1.628,1.628,0,0,1,1.691,1.691,1.628,1.628,0,0,1-1.691,1.691,1.628,1.628,0,0,1-1.691-1.691A1.713,1.713,0,0,1-884.117,1029.2Zm0,7.889a1.628,1.628,0,0,1,1.691,1.691,1.628,1.628,0,0,1-1.691,1.69,1.628,1.628,0,0,1-1.691-1.69A1.628,1.628,0,0,1-884.117,1037.088Zm0,7.749a1.628,1.628,0,0,1,1.691,1.691,1.628,1.628,0,0,1-1.691,1.69,1.628,1.628,0,0,1-1.691-1.69A1.628,1.628,0,0,1-884.117,1044.837Z" transform="translate(949.977 -943.543)"/>
      <path id="Path_76" data-name="Path 76" class="cls-1" d="M-858.6,1021.591c-4.508,2.113-9.3,4.508-9.3,4.508s-1.972-3.8-4.226-8.171c-2.254-4.227-4.931-9.017-6.058-10.566a17.689,17.689,0,0,0-6.34-5.353,32.192,32.192,0,0,0-3.24-1.409,18.7,18.7,0,0,1-11.13,3.522h-.7l7.467,4.227a.943.943,0,0,1,.564.986v49.449q4.226-.211,8.453-.845a3.506,3.506,0,0,0,3.1-3.945l-3.24-32.825,8.171,15.779c.845,1.69,2.536,3.1,4.508,2.536s18.315-8.876,22.823-11.13c3.945-1.972,4.79-4.367,4.086-6.621H-858.6Z" transform="translate(965.742 -943.543)"/>
      <path id="Path_77" data-name="Path 77" class="cls-1" d="M-909.6,991.076a14.49,14.49,0,0,0,14.511,14.511,14.49,14.49,0,0,0,14.511-14.511,15.624,15.624,0,0,0-1.127-5.776h-26.768A15.624,15.624,0,0,0-909.6,991.076Z" transform="translate(961.654 -949.798)"/>
      <path id="Path_78" data-name="Path 78" class="cls-1" d="M-905.188,980.951l-1.127,12.4h25.5l-1.127-12.4a8.517,8.517,0,0,0,8.171-8.453,8.478,8.478,0,0,0-8.453-8.453,7.976,7.976,0,0,0-2.536.423,10.945,10.945,0,0,0-8.876-4.367,11.146,11.146,0,0,0-8.876,4.367,7.976,7.976,0,0,0-2.536-.423A8.478,8.478,0,0,0-913.5,972.5,8.743,8.743,0,0,0-905.188,980.951Z" transform="translate(960.059 -960.1)"/>
    </g>
  </g>
</svg>
