<svg xmlns="http://www.w3.org/2000/svg" viewBox="0 0 119.683 114.118">
  <defs>
    <style>
      .cls-1 {
        fill: #fff;
      }
    </style>
  </defs>
  <g id="noun_Recycle_806275" transform="translate(-9.941 -11.535)">
    <g id="Group_149" data-name="Group 149" transform="translate(16.226 91.642)">
      <path id="Path_50" data-name="Path 50" class="cls-1" d="M26.085,87.638,14.219,66.058a16.9,16.9,0,0,0,6.413,1.274h40.83V93.4H35.809A11.1,11.1,0,0,1,26.085,87.638Z" transform="translate(-14.219 -66.058)"/>
    </g>
    <g id="Group_150" data-name="Group 150" transform="translate(9.941 53.861)">
      <path id="Path_51" data-name="Path 51" class="cls-1" d="M18.377,44.408l-5.64-3.583,23.032-.482L46.027,62,40.4,58.415,30.421,75.681l-7.709-.156A13.051,13.051,0,0,1,11.986,55.481Z" transform="translate(-9.941 -40.343)"/>
    </g>
    <g id="Group_151" data-name="Group 151" transform="translate(29.126 11.535)">
      <path id="Path_52" data-name="Path 52" class="cls-1" d="M45.675,11.538l24.63.522a16.774,16.774,0,0,0-4.314,4.92L45.583,52.325,23,39.289,35.825,17.083A11.1,11.1,0,0,1,45.675,11.538Z" transform="translate(-22.999 -11.535)"/>
    </g>
    <g id="Group_152" data-name="Group 152" transform="translate(71.44 12.689)">
      <path id="Path_53" data-name="Path 53" class="cls-1" d="M84.911,30.409l5.922-3.091-11.1,20.19L55.851,45.554l5.922-3.082L51.8,25.2l3.992-6.591A13.219,13.219,0,0,1,60.919,13.8a13.065,13.065,0,0,1,17.61,5.536Z" transform="translate(-51.799 -12.32)"/>
    </g>
    <g id="Group_153" data-name="Group 153" transform="translate(92.738 49.403)">
      <path id="Path_54" data-name="Path 54" class="cls-1" d="M101.58,70.827,88.805,91.9a16.636,16.636,0,0,0-2.1-6.184L66.3,50.354,88.867,37.309l12.826,22.218A11.115,11.115,0,0,1,101.58,70.827Z" transform="translate(-66.295 -37.309)"/>
    </g>
    <g id="Group_154" data-name="Group 154" transform="translate(72.758 86.243)">
      <path id="Path_55" data-name="Path 55" class="cls-1" d="M64.917,95.128l-.284,6.666L52.7,82.094l13.62-19.711-.281,6.675H85.984l3.71,6.747a13.054,13.054,0,0,1-12,19.323H64.917Z" transform="translate(-52.696 -62.383)"/>
    </g>
  </g>
</svg>
